<svg width="44.264648" height="17.000000" viewBox="0 0 44.2646 17" fill="none" xmlns="http://www.w3.org/2000/svg" xmlns:xlink="http://www.w3.org/1999/xlink">
	<desc>
			Created with Pixso.
	</desc>
	<defs/>
	<path id="Vector" d="M34.74 17L9.51 17C4.25 17 0 13.2 0 8.5C0 3.79 4.25 0 9.51 0L34.74 0C40.01 0 44.26 3.79 44.26 8.5C44.26 13.2 40.01 17 34.74 17Z" fill="#6DCBBA" fill-opacity="1.000000" fill-rule="nonzero"/>
	<path id="100%" d="M32.98 3.73L31.96 3.73L28.44 12L29.45 12L32.98 3.73ZM26.42 8.26Q26.86 8.53 27.47 8.53Q27.9 8.53 28.28 8.4Q28.45 8.34 28.6 8.25Q28.78 8.15 28.94 8.02Q29.23 7.78 29.42 7.43Q29.72 6.89 29.72 6.15Q29.72 5.1 29.23 4.46Q29.14 4.35 29.04 4.26Q28.54 3.82 27.66 3.82Q27.19 3.82 26.79 3.98Q26.65 4.04 26.52 4.11Q26.36 4.2 26.23 4.31Q25.92 4.56 25.71 4.94Q25.41 5.48 25.41 6.22Q25.41 6.84 25.65 7.36Q25.65 7.37 25.66 7.39Q25.81 7.72 26.06 7.97Q26.19 8.11 26.36 8.22Q26.39 8.24 26.42 8.26ZM27.92 7.78Q27.76 7.87 27.56 7.87Q27.41 7.87 27.29 7.82Q27.05 7.7 26.91 7.37Q26.7 6.86 26.7 6.15Q26.7 5.37 26.92 4.93Q27.05 4.68 27.25 4.57Q27.4 4.49 27.59 4.49Q27.77 4.49 27.9 4.57Q28.12 4.68 28.25 4.97Q28.45 5.45 28.45 6.2Q28.45 6.98 28.23 7.42Q28.11 7.67 27.92 7.78ZM6.68 6.78Q7.16 6.67 7.35 6.61L7.35 11.24L6.03 11.35L6.03 12L10.22 12L10.22 11.35L8.97 11.22L8.97 5.17L8.1 5.05L8.09 5.05Q7.68 5.39 7.04 5.71Q6.4 6.02 5.8 6.14L5.92 6.91Q6.2 6.88 6.68 6.78ZM12.28 11.63Q12.94 12.11 13.94 12.11Q14.56 12.11 15.09 11.9Q15.31 11.81 15.51 11.69Q15.62 11.63 15.72 11.55Q16.28 11.15 16.63 10.45Q17.04 9.63 17.04 8.5Q17.04 6.86 16.33 5.96Q16.16 5.75 15.96 5.59Q15.28 5.07 14.19 5.07Q13.55 5.07 12.99 5.29Q12.8 5.37 12.61 5.47Q12.5 5.54 12.39 5.61Q11.83 6 11.48 6.67Q11.05 7.46 11.05 8.61Q11.05 10.23 11.79 11.17Q12.01 11.44 12.28 11.63ZM19.51 11.63Q20.17 12.11 21.17 12.11Q21.78 12.11 22.32 11.9Q22.54 11.81 22.74 11.69Q22.84 11.63 22.94 11.55Q23.5 11.15 23.86 10.45Q24.27 9.63 24.27 8.5Q24.27 6.86 23.55 5.96Q23.39 5.75 23.18 5.59Q22.51 5.07 21.42 5.07Q20.77 5.07 20.21 5.29Q20.02 5.37 19.84 5.47Q19.72 5.54 19.62 5.61Q19.06 6 18.7 6.67Q18.27 7.46 18.27 8.61Q18.27 10.23 19.01 11.17Q19.23 11.44 19.51 11.63ZM14.55 11.33Q14.33 11.44 14.05 11.44Q13.78 11.44 13.56 11.33Q13.22 11.16 13.02 10.7Q12.7 9.96 12.7 8.48Q12.7 6.27 13.58 5.83Q13.79 5.72 14.06 5.72Q14.4 5.72 14.64 5.87Q14.93 6.05 15.09 6.42Q15.39 7.12 15.39 8.62Q15.39 10.03 15.07 10.74Q14.87 11.16 14.55 11.33ZM21.77 11.33Q21.56 11.44 21.28 11.44Q21 11.44 20.79 11.33Q20.45 11.16 20.25 10.7Q19.93 9.96 19.93 8.48Q19.93 6.27 20.81 5.83Q21.02 5.72 21.29 5.72Q21.62 5.72 21.87 5.87Q22.15 6.05 22.32 6.42Q22.62 7.12 22.62 8.62Q22.62 10.03 22.29 10.74Q22.1 11.16 21.77 11.33ZM32.81 11.61Q33.23 11.84 33.77 11.84Q34.2 11.84 34.58 11.71Q34.75 11.65 34.91 11.56Q35.09 11.46 35.24 11.33Q35.53 11.09 35.72 10.74Q36.03 10.2 36.03 9.47Q36.03 8.41 35.53 7.77Q35.44 7.66 35.33 7.56Q34.84 7.13 33.97 7.13Q33.52 7.13 33.13 7.28Q32.97 7.34 32.83 7.42Q32.66 7.52 32.51 7.64Q32.21 7.89 32.01 8.25Q31.72 8.79 31.72 9.53Q31.72 10.17 31.96 10.69Q32.1 10.99 32.31 11.22Q32.47 11.39 32.67 11.53Q32.74 11.57 32.81 11.61ZM34.22 11.08Q34.07 11.17 33.86 11.17Q33.71 11.17 33.59 11.11Q33.35 11 33.21 10.67Q33 10.17 33 9.47Q33 8.68 33.22 8.24Q33.35 8 33.54 7.89Q33.7 7.8 33.91 7.8Q34.06 7.8 34.19 7.87Q34.42 7.98 34.55 8.29Q34.75 8.77 34.75 9.51Q34.75 10.29 34.54 10.73Q34.42 10.97 34.22 11.08Z" fill="#000000" fill-opacity="1.000000" fill-rule="evenodd"/>
</svg>
