<svg width="49.662598" height="34.349854" viewBox="0 0 49.6626 34.3499" fill="none" xmlns="http://www.w3.org/2000/svg" xmlns:xlink="http://www.w3.org/1999/xlink">
	<desc>
			Created with Pixso.
	</desc>
	<defs/>
	<path d="M49.49 17.71L42.87 9.84C42.7 9.68 42.46 9.51 42.21 9.51L33.1 9.51L33.1 22.76L0 22.76L0 28.55C0 29.05 0.33 29.38 0.82 29.38L5.62 29.38C5.54 29.63 5.54 29.96 5.54 30.21C5.54 32.52 7.36 34.34 9.68 34.34C12 34.34 13.82 32.52 13.82 30.21C13.82 29.96 13.82 29.63 13.74 29.38L36.5 29.38C36.41 29.63 36.41 29.96 36.41 30.21C36.41 32.52 38.24 34.34 40.55 34.34C42.87 34.34 44.69 32.52 44.69 30.21C44.69 29.96 44.69 29.63 44.61 29.38L48.83 29.38C49.33 29.38 49.66 29.05 49.66 28.55L49.66 18.29L49.66 18.2C49.66 18.04 49.57 17.87 49.49 17.71ZM47.09 17.38L41.38 17.38L41.38 14.48L44.61 14.48L47.09 17.38ZM9.68 32.69C8.27 32.69 7.2 31.61 7.2 30.21C7.2 29.79 7.28 29.38 7.53 28.96C7.94 28.22 8.77 27.72 9.68 27.72C9.93 27.72 10.09 27.72 10.34 27.81C10.76 27.89 11.17 28.14 11.42 28.47C11.58 28.63 11.67 28.8 11.83 28.96C12.08 29.38 12.16 29.79 12.16 30.21C12.16 31.61 11 32.69 9.68 32.69ZM40.55 32.69C39.15 32.69 38.07 31.61 38.07 30.21C38.07 29.79 38.15 29.38 38.4 28.96C38.81 28.22 39.64 27.72 40.55 27.72C40.8 27.72 40.97 27.72 41.22 27.81C41.63 27.89 42.04 28.14 42.29 28.47C42.46 28.63 42.54 28.8 42.7 28.96C42.95 29.38 43.04 29.79 43.04 30.21C43.04 31.61 41.96 32.69 40.55 32.69ZM48 27.72L43.86 27.72C43.86 27.64 43.78 27.64 43.78 27.56C43.7 27.47 43.62 27.39 43.53 27.31C43.45 27.23 43.45 27.23 43.37 27.14C43.28 27.06 43.2 26.98 43.12 26.98C43.04 26.9 43.04 26.9 42.95 26.9C42.87 26.81 42.79 26.81 42.7 26.73C42.62 26.73 42.62 26.65 42.54 26.65C42.46 26.56 42.37 26.56 42.29 26.48C42.21 26.48 42.13 26.4 42.13 26.4C42.04 26.4 41.96 26.32 41.79 26.32C41.71 26.32 41.63 26.32 41.63 26.23C41.55 26.23 41.38 26.15 41.3 26.15C41.22 26.15 41.22 26.15 41.13 26.15C40.97 26.15 40.8 26.15 40.64 26.15C40.47 26.15 40.3 26.15 40.14 26.15C40.06 26.15 40.06 26.15 39.97 26.15C39.89 26.15 39.73 26.15 39.64 26.23C39.56 26.23 39.48 26.23 39.48 26.32C39.39 26.32 39.31 26.4 39.15 26.4C39.06 26.4 38.98 26.48 38.98 26.48C38.9 26.56 38.81 26.56 38.73 26.65C38.65 26.65 38.65 26.73 38.57 26.73C38.48 26.81 38.4 26.81 38.32 26.9C38.24 26.9 38.24 26.98 38.15 26.98C38.07 27.06 37.99 27.14 37.9 27.14C37.82 27.23 37.82 27.23 37.74 27.31C37.66 27.39 37.57 27.47 37.49 27.56C37.49 27.64 37.41 27.64 37.41 27.72L12.99 27.72C12.99 27.64 12.91 27.64 12.91 27.56C12.82 27.47 12.74 27.39 12.66 27.31C12.58 27.23 12.58 27.23 12.49 27.14C12.41 27.06 12.33 26.98 12.25 26.98C12.16 26.9 12.16 26.9 12.08 26.9C12 26.81 11.91 26.81 11.83 26.73C11.75 26.73 11.75 26.65 11.67 26.65C11.58 26.56 11.5 26.56 11.42 26.48C11.33 26.48 11.25 26.4 11.25 26.4C11.17 26.4 11.09 26.32 10.92 26.32C10.84 26.32 10.76 26.32 10.76 26.23C10.67 26.23 10.51 26.15 10.42 26.15C10.34 26.15 10.34 26.15 10.26 26.15C10.09 26.15 9.93 26.15 9.76 26.15C9.6 26.15 9.43 26.15 9.27 26.15C9.18 26.15 9.18 26.15 9.1 26.15C9.02 26.15 8.85 26.15 8.77 26.23C8.69 26.23 8.6 26.23 8.6 26.32C8.52 26.32 8.44 26.4 8.35 26.4C8.27 26.4 8.19 26.48 8.11 26.48C8.02 26.48 7.94 26.56 7.86 26.56C7.78 26.56 7.69 26.65 7.61 26.65C7.53 26.73 7.44 26.73 7.36 26.81C7.28 26.9 7.2 26.9 7.2 26.98C7.11 27.06 7.11 27.06 7.03 27.14C6.95 27.23 6.86 27.23 6.86 27.31C6.62 27.39 6.62 27.47 6.53 27.56C6.45 27.64 6.45 27.72 6.37 27.72L1.65 27.72L1.65 24.41L33.93 24.41C34.43 24.41 34.76 24.08 34.76 23.58L34.76 11.17L41.79 11.17L43.2 12.82L40.55 12.82C40.06 12.82 39.73 13.16 39.73 13.65L39.73 18.2C39.73 18.7 40.06 19.03 40.55 19.03L48 19.03L48 27.72Z" fill="#4E9DD3" fill-opacity="1.000000" fill-rule="nonzero"/>
	<path d="M28.3 6.7C27.56 2.81 24.16 0 20.11 0L13.65 0C9.68 0 6.29 2.81 5.46 6.7C4.46 7.03 3.72 7.94 3.72 9.02C3.72 9.68 3.97 10.26 4.38 10.67C3.97 11.09 3.72 11.67 3.72 12.33C3.72 13.4 4.46 14.4 5.46 14.65C6.2 18.54 9.6 21.35 13.65 21.35L20.11 21.35C24.08 21.35 27.48 18.54 28.3 14.65C29.3 14.31 30.04 13.4 30.04 12.33C30.04 11.67 29.79 11.09 29.38 10.67C29.79 10.26 30.04 9.68 30.04 9.02C30.12 7.94 29.38 7.03 28.3 6.7ZM13.65 1.65L20.11 1.65C23.17 1.65 25.74 3.72 26.56 6.62L26.23 6.62L26.07 6.45C25.74 5.95 25.16 5.79 24.58 5.79L24.08 5.79C23.5 5.79 22.92 6.04 22.51 6.45C22.43 6.53 22.26 6.62 22.09 6.62L21.6 6.62C21.43 6.62 21.27 6.53 21.18 6.45C20.77 5.95 20.19 5.79 19.61 5.79L19.12 5.79C18.54 5.79 17.96 6.04 17.54 6.45C17.46 6.53 17.29 6.62 17.13 6.62L16.63 6.62C16.47 6.62 16.3 6.53 16.22 6.45C15.89 5.95 15.31 5.79 14.73 5.79L14.23 5.79C13.65 5.79 13.07 6.04 12.66 6.45C12.58 6.53 12.41 6.62 12.25 6.62L11.75 6.62C11.58 6.62 11.42 6.53 11.33 6.45C10.92 5.95 10.34 5.79 9.76 5.79L9.27 5.79C8.69 5.79 8.11 6.04 7.69 6.45L7.53 6.53L7.28 6.53C8.02 3.72 10.67 1.65 13.65 1.65ZM6.2 8.19L8.19 8.19L8.85 7.53C9.02 7.44 9.1 7.36 9.27 7.36L9.76 7.36C9.93 7.36 10.09 7.44 10.18 7.53C10.59 7.94 11.17 8.19 11.75 8.19L12.25 8.19C12.82 8.19 13.4 7.94 13.82 7.53C13.9 7.44 14.07 7.36 14.23 7.36L14.73 7.36C14.89 7.36 15.06 7.44 15.14 7.53C15.56 7.94 16.14 8.19 16.71 8.19L17.21 8.19C17.79 8.19 18.37 7.94 18.78 7.53C18.87 7.44 19.03 7.36 19.12 7.36L19.61 7.36C19.78 7.36 19.94 7.44 20.03 7.53C20.44 7.94 21.02 8.19 21.6 8.19L22.09 8.19C22.67 8.19 23.25 7.94 23.67 7.53C23.75 7.44 23.92 7.36 24.08 7.36L24.58 7.36C24.74 7.36 24.91 7.44 24.99 7.53L25.65 8.19L27.64 8.19C28.05 8.19 28.47 8.52 28.47 9.02C28.47 9.51 28.14 9.84 27.64 9.84L6.2 9.84C5.79 9.84 5.38 9.51 5.38 9.02C5.38 8.52 5.79 8.19 6.2 8.19ZM20.19 19.69L13.74 19.69C10.67 19.69 8.11 17.63 7.28 14.73L26.65 14.73C25.82 17.71 23.25 19.69 20.19 19.69ZM27.64 13.16L6.2 13.16C5.79 13.16 5.38 12.82 5.38 12.33C5.38 11.83 5.71 11.5 6.2 11.5L27.56 11.5C27.97 11.5 28.39 11.83 28.39 12.33C28.39 12.82 28.05 13.16 27.64 13.16Z" fill="#4E9DD3" fill-opacity="1.000000" fill-rule="nonzero"/>
</svg>
