<svg width="31.659424" height="30.370117" viewBox="0 0 31.6594 30.3701" fill="none" xmlns="http://www.w3.org/2000/svg" xmlns:xlink="http://www.w3.org/1999/xlink">
	<desc>
			Created with Pixso.
	</desc>
	<defs/>
	<path id="Vector" d="M23.32 20.81C22.51 26.25 19.53 29.67 15.6 29.73C14.72 30.11 13.77 30.37 12.82 30.37C9.02 30.37 5.23 27.33 2.32 22.08C-1.61 14.99 0.62 4.17 0.69 3.73C0.76 3.35 1.23 3.1 1.64 3.29C1.91 3.41 5.84 5.06 9.84 7.9C11.26 5.06 13.09 2.34 14.85 0.25C14.99 0.12 15.19 0 15.39 0C15.6 0 15.8 0.12 15.93 0.25C17.09 1.58 18.71 3.85 20.07 6.26C24.61 3.47 30.1 2.34 30.77 2.21L30.84 2.21C30.91 2.21 31.65 2.15 31.65 2.78C31.65 3.16 31.52 12.4 26.98 17.58C25.76 18.91 24.54 19.99 23.32 20.81Z" fill="#E9D4C6" fill-opacity="1.000000" fill-rule="nonzero"/>
	<path id="Vector" d="M23.32 20.81C22.51 26.25 19.53 29.67 15.6 29.73C14.72 30.11 13.77 30.37 12.82 30.37C9.02 30.37 5.23 27.33 2.32 22.08C-1.61 14.99 0.62 4.17 0.69 3.73C0.76 3.35 1.23 3.1 1.64 3.29C1.91 3.41 5.84 5.06 9.84 7.9C11.26 5.06 13.09 2.34 14.85 0.25C14.99 0.12 15.19 0 15.39 0C15.6 0 15.8 0.12 15.93 0.25C17.09 1.58 18.71 3.85 20.07 6.26C24.61 3.47 30.1 2.34 30.77 2.21L30.84 2.21C30.91 2.21 31.65 2.15 31.65 2.78C31.65 3.16 31.52 12.4 26.98 17.58C25.76 18.91 24.54 19.99 23.32 20.81ZM25.9 16.76C28.33 13.98 29.42 9.8 29.89 6.77C28.54 9.49 26.37 13.28 23.52 16.38C23.59 17.2 23.59 18.15 23.52 19.04C24.34 18.41 25.08 17.65 25.9 16.76ZM23.32 14.61C26.23 11.07 28.4 6.77 29.49 4.42C27.59 5.63 24.68 7.65 21.97 10.12C22.58 11.51 23.05 13.16 23.32 14.61ZM17.9 21.51C18.71 15.69 17.29 8.47 15.46 2.78L15.46 2.72C13.16 9.87 10.79 22.08 15.46 28.09C15.46 28.02 17.29 26 17.9 21.51ZM3.47 21.51C6.04 26.19 9.29 28.91 12.48 29.1C10.58 28.15 9.29 26.38 8.48 24.42C8.28 23.85 4.21 19.48 1.5 7.84C1.16 11.64 1.16 17.33 3.47 21.51ZM8.14 12.02C5.97 9.3 3.81 7.08 2.38 5.69C3.06 8.79 4.55 14.99 7.4 20.24C6.99 17.01 7.26 14.61 8.14 12.02ZM4.75 6.26C5.91 7.46 7.26 8.92 8.62 10.56C8.82 10.06 9.02 9.55 9.23 9.11C7.74 7.9 6.11 6.95 4.75 6.26ZM8.62 17.2C8.62 21.32 9.7 27.01 13.9 28.28C9.63 22.08 11.53 11.19 13.63 4.11C11.19 7.65 8.62 12.97 8.62 17.2ZM16.95 28.28C22.24 26.76 23.25 17.58 21.15 11.7C20.2 9.11 18.78 6.51 17.29 4.23C19.32 11.32 21.15 22.08 16.95 28.28ZM21.42 8.85C23.32 7.14 25.35 5.63 27.05 4.49C25.15 5.12 22.78 6.07 20.75 7.33C20.75 7.46 21.15 8.16 21.42 8.85Z" fill="#000000" fill-opacity="1.000000" fill-rule="nonzero"/>
</svg>
