<svg width="44.850098" height="39.000000" viewBox="0 0 44.8501 39" fill="none" xmlns="http://www.w3.org/2000/svg" xmlns:xlink="http://www.w3.org/1999/xlink">
	<desc>
			Created with Pixso.
	</desc>
	<defs>
		<clipPath id="clip1_1555">
			<rect id="Frame" width="44.849998" height="39.000000" fill="white" fill-opacity="0"/>
		</clipPath>
	</defs>
	<rect id="Frame" width="44.849998" height="39.000000" fill="#FFFFFF" fill-opacity="0"/>
	<g clip-path="url(#clip1_1555)">
		<path id="Vector" d="M32.87 15.39C32.19 11.84 29.05 9.3 25.39 9.3L19.45 9.3C15.79 9.3 12.65 11.92 11.97 15.39C11.04 15.65 10.36 16.49 10.36 17.51C10.36 18.1 10.61 18.61 10.95 19.03C10.61 19.45 10.36 19.96 10.36 20.55C10.36 21.57 11.04 22.41 11.97 22.67C12.65 26.22 15.79 28.76 19.45 28.76L25.39 28.76C29.05 28.76 32.19 26.14 32.87 22.67C33.8 22.41 34.48 21.57 34.48 20.55C34.48 19.96 34.23 19.45 33.89 19.03C34.23 18.61 34.48 18.1 34.48 17.51C34.48 16.49 33.8 15.65 32.87 15.39ZM19.45 10.74L25.39 10.74C28.2 10.74 30.57 12.6 31.34 15.22L31.08 15.22L30.91 15.05C30.49 14.63 29.98 14.46 29.47 14.46L29.05 14.46C28.54 14.46 28.03 14.63 27.6 15.05C27.52 15.14 27.35 15.22 27.26 15.22L26.84 15.22C26.67 15.22 26.58 15.14 26.5 15.05C26.07 14.63 25.56 14.46 25.05 14.46L24.63 14.46C24.12 14.46 23.61 14.63 23.18 15.05C23.1 15.14 22.93 15.22 22.84 15.22L22.42 15.22C22.25 15.22 22.17 15.14 22.08 15.05C21.66 14.63 21.15 14.46 20.64 14.46L20.21 14.46C19.7 14.46 19.19 14.63 18.77 15.05C18.68 15.14 18.51 15.22 18.43 15.22L18 15.22C17.83 15.22 17.75 15.14 17.66 15.05C17.24 14.63 16.73 14.46 16.22 14.46L15.79 14.46C15.28 14.46 14.78 14.63 14.35 15.05L14.18 15.22L13.59 15.22C14.27 12.68 16.64 10.74 19.45 10.74ZM12.65 16.75L14.44 16.75L15.03 16.15C15.11 16.07 15.28 16.07 15.45 16.07L15.88 16.07C16.05 16.07 16.13 16.15 16.22 16.24C16.64 16.66 17.15 16.83 17.66 16.83L18.09 16.83C18.6 16.83 19.11 16.66 19.53 16.24C19.62 16.15 19.79 16.07 19.87 16.07L20.38 16.07C20.55 16.07 20.64 16.15 20.72 16.24C21.15 16.66 21.66 16.83 22.17 16.83L22.59 16.83C23.1 16.83 23.61 16.66 24.03 16.24C24.12 16.15 24.29 16.07 24.37 16.07L24.8 16.07C24.97 16.07 25.05 16.15 25.14 16.24C25.56 16.66 26.07 16.83 26.58 16.83L27.18 16.83C27.69 16.83 28.2 16.66 28.62 16.24C28.71 16.07 28.88 16.07 28.96 16.07L29.39 16.07C29.56 16.07 29.64 16.15 29.73 16.24L30.32 16.83L32.27 16.83C32.7 16.83 33.04 17.17 33.04 17.59C33.04 18.01 32.7 18.35 32.27 18.35L12.65 18.35C12.23 18.35 11.89 18.01 11.89 17.59C11.89 17.17 12.23 16.75 12.65 16.75ZM25.39 27.32L19.45 27.32C16.64 27.32 14.27 25.46 13.5 22.84L31.25 22.84C30.57 25.37 28.2 27.32 25.39 27.32ZM32.27 21.31L12.65 21.31C12.23 21.31 11.89 20.98 11.89 20.55C11.89 20.13 12.23 19.79 12.65 19.79L32.27 19.79C32.7 19.79 33.04 20.13 33.04 20.55C33.04 20.98 32.61 21.31 32.27 21.31Z" fill="#4E9DD3" fill-opacity="1.000000" fill-rule="nonzero"/>
		<path id="Vector" d="M10.36 1.69C15.79 1.69 20.98 6.76 21.23 7.02C21.57 7.36 21.99 7.44 22.33 7.44C22.67 7.44 23.1 7.27 23.44 7.02C23.52 7.02 26.07 4.48 29.55 2.96C31.34 2.19 32.95 1.77 34.48 1.77C36.69 1.77 38.64 2.62 40.34 4.31C42.47 6.34 43.32 8.79 43.06 11.59C42.13 21.91 26.24 34.09 22.33 36.96C20.64 35.7 16.73 32.73 12.74 28.93C6.03 22.24 2.2 16.32 1.69 11.5C1.52 8.71 2.37 6.34 4.41 4.22C6.28 2.36 8.4 1.69 10.36 1.69ZM10.36 0C7.64 0 5.26 1.01 3.22 3.04C0.76 5.58 -0.26 8.37 -0.01 11.67C0.5 16.91 4.41 23.09 11.63 30.03C15.79 34 19.87 37.13 21.4 38.23L22.42 39L23.44 38.23C28.2 34.77 43.82 22.58 44.84 11.67C45.18 8.29 44.08 5.41 41.62 3.04C39.58 1.01 37.2 0 34.48 0C32.7 0 30.83 0.42 28.87 1.35C26.84 2.28 24.8 3.55 22.84 5.32L22.76 5.32L22.33 5.75C21.57 4.9 16.22 0 10.36 0Z" fill="#4E9DD3" fill-opacity="1.000000" fill-rule="nonzero"/>
	</g>
</svg>
