<svg width="124.000000" height="124.074951" viewBox="0 0 124 124.075" fill="none" xmlns="http://www.w3.org/2000/svg" xmlns:xlink="http://www.w3.org/1999/xlink">
	<desc>
			Created with Pixso.
	</desc>
	<defs/>
	<path id="Vector" d="M105.92 105.92C81.72 130.12 42.52 130.12 18.22 105.92C-6.08 81.62 -6.08 42.42 18.22 18.22C42.42 -6.08 81.62 -6.08 105.92 18.22C130.02 42.42 130.02 81.62 105.92 105.92Z" fill="#B3D9F3" fill-opacity="1.000000" fill-rule="nonzero"/>
	<path id="Vector" d="M79.32 40.02L78.72 67.42C78.72 67.42 75.32 71.62 61.92 71.62C48.72 71.62 46.62 66.82 46.62 66.82L46.12 41.62C39.02 41.72 32.02 36.02 32.02 28.92C32.02 21.82 37.82 16.02 44.92 16.02C46.72 16.02 48.52 16.42 50.12 17.12C52.22 12.92 56.72 10.02 61.72 10.02C66.52 10.02 70.42 12.72 72.72 16.62C74.82 15.02 77.42 14.22 80.32 14.22C87.42 14.22 93.22 19.92 93.22 27.12C93.32 34.22 86.52 40.02 79.32 40.02Z" fill="#FFFFFF" fill-opacity="1.000000" fill-rule="nonzero"/>
	<path id="Vector" d="M27.72 56.72C27.72 55.62 27.62 54.72 27.52 54.22C27.32 53.02 26.72 51.92 25.72 51.02C24.72 50.12 23.62 49.72 22.22 49.72C20.82 49.72 19.52 50.22 18.52 51.22C17.42 50.22 16.22 49.72 14.82 49.72C13.52 49.72 12.22 50.22 11.32 51.02C10.42 51.82 9.72 52.82 9.42 54.22C9.32 54.82 9.22 55.62 9.22 56.72L9.22 65.32C9.22 65.82 9.62 66.02 9.92 66.02C10.42 66.02 10.62 65.62 10.62 65.32L10.62 56.42C10.62 54.82 10.92 53.52 11.62 52.52C12.32 51.42 13.42 50.92 14.92 50.92C16.02 50.92 16.92 51.32 17.72 52.12C17.02 53.32 16.72 54.62 16.72 56.42L16.72 65.22C16.72 65.62 17.02 65.92 17.42 65.92C17.92 65.92 18.12 65.52 18.12 65.22L18.12 56.32C18.12 55.02 18.32 54.02 18.62 53.32C18.92 54.12 19.12 55.32 19.12 56.72L19.12 65.32C19.12 65.72 19.42 66.02 19.82 66.02C20.32 66.02 20.52 65.62 20.52 65.32L20.52 56.12C20.52 54.32 20.22 53.02 19.52 52.02C20.22 51.32 21.12 50.92 22.22 50.92C23.22 50.92 24.12 51.22 24.82 51.82C25.52 52.32 26.02 53.12 26.32 54.12C26.52 54.72 26.52 55.42 26.52 56.42L26.52 65.32C26.52 65.72 26.82 66.02 27.22 66.02C27.72 66.02 27.92 65.62 27.92 65.32L27.82 64.82L27.82 56.72L27.72 56.72Z" fill="#000000" fill-opacity="1.000000" fill-rule="nonzero"/>
	<path id="Vector" d="M43.92 52.22C42.32 50.62 40.32 49.82 38.02 49.82C35.72 49.82 33.72 50.62 32.12 52.22C30.52 53.82 29.72 55.82 29.72 58.12C29.72 60.42 30.52 62.42 32.22 64.02C33.92 65.62 35.92 66.42 38.22 66.42C39.92 66.42 41.52 65.92 42.82 65.02L42.82 65.22C42.82 65.92 43.22 66.12 43.52 66.12C43.82 66.12 44.22 65.82 44.22 65.22L44.22 63.92C45.82 62.22 46.62 60.32 46.62 58.12C46.42 55.72 45.52 53.72 43.92 52.22ZM42.62 58.22L42.62 63.42C41.22 64.62 39.72 65.22 38.02 65.22C36.12 65.22 34.42 64.52 33.12 63.12C31.72 61.82 31.12 60.22 31.12 58.22C31.12 56.22 31.82 54.62 33.22 53.22C34.62 51.82 36.22 51.12 38.22 51.12C40.12 51.12 41.82 51.82 43.12 53.22C44.42 54.62 45.22 56.22 45.22 58.12C45.22 59.52 44.82 60.72 44.12 61.82L44.12 58.22C43.92 57.22 42.62 57.22 42.62 58.22Z" fill="#000000" fill-opacity="1.000000" fill-rule="nonzero"/>
	<path id="Vector" d="M55.42 66.42C57.32 66.42 59.12 65.82 60.72 64.52C61.12 64.22 61.42 64.02 61.62 63.72L61.72 63.72L61.72 63.62C61.82 63.52 61.82 63.42 61.82 63.22C61.82 62.92 61.62 62.62 61.22 62.62L60.82 62.62L60.72 62.82L60.72 63.02C60.02 63.62 59.22 64.22 58.42 64.62C57.52 65.02 56.52 65.32 55.62 65.32C53.62 65.32 52.02 64.62 50.72 63.22C49.32 61.82 48.62 60.22 48.62 58.22C48.62 56.32 49.32 54.62 50.72 53.32C52.02 51.92 53.62 51.32 55.62 51.32C57.52 51.32 59.22 52.02 60.62 53.42L60.92 53.62L61.32 53.62L61.42 53.52C61.62 53.42 61.72 53.22 61.72 53.02L61.72 52.82L61.62 52.72C61.62 52.72 61.62 52.62 61.52 52.62C61.42 52.52 61.42 52.42 61.32 52.42C59.82 50.82 57.82 49.92 55.42 49.92C53.12 49.92 51.12 50.72 49.52 52.32C47.92 53.92 47.12 55.92 47.12 58.22C47.12 60.42 47.92 62.42 49.52 64.12C51.22 65.62 53.22 66.42 55.42 66.42Z" fill="#000000" fill-opacity="1.000000" fill-rule="nonzero"/>
	<path id="Vector" d="M76.02 52.22C74.42 50.62 72.42 49.82 70.12 49.82C67.82 49.82 65.82 50.62 64.22 52.22C62.62 53.82 61.82 55.82 61.82 58.12C61.82 60.42 62.62 62.42 64.22 64.02C65.92 65.62 67.92 66.42 70.22 66.42C71.92 66.42 73.52 65.92 74.82 65.02L74.82 65.22C74.82 65.92 75.22 66.12 75.52 66.12C75.82 66.12 76.22 65.82 76.22 65.22L76.22 63.92C77.82 62.22 78.62 60.32 78.62 58.12C78.52 55.62 77.72 53.72 76.02 52.22ZM74.72 58.22L74.72 63.42C73.32 64.62 71.82 65.22 70.12 65.22C68.22 65.22 66.52 64.52 65.12 63.12C63.72 61.82 63.12 60.22 63.12 58.22C63.12 56.22 63.82 54.62 65.22 53.22C66.62 51.82 68.22 51.12 70.22 51.12C72.12 51.12 73.82 51.82 75.12 53.22C76.52 54.62 77.22 56.22 77.22 58.12C77.22 59.52 76.82 60.82 76.12 61.92L76.12 58.32C76.02 57.22 74.72 57.22 74.72 58.22Z" fill="#000000" fill-opacity="1.000000" fill-rule="nonzero"/>
	<path id="Vector" d="M80.62 66.12C81.12 66.12 81.32 65.72 81.32 65.42L81.32 58.92C81.32 57.22 81.42 56.22 81.62 55.52C81.92 54.42 82.52 53.52 83.32 52.82C84.12 52.12 85.02 51.72 86.02 51.42C86.52 51.42 86.72 51.02 86.72 50.72C86.72 50.22 86.42 50.12 86.22 50.02L86.12 50.02L86.02 50.02C85.52 50.02 84.92 50.22 84.22 50.62C83.02 51.22 82.02 52.02 81.32 53.12C81.32 52.52 81.32 51.72 81.32 50.82C81.32 49.82 79.92 49.82 79.92 50.82L79.92 65.42C79.92 65.82 80.22 66.12 80.62 66.12Z" fill="#000000" fill-opacity="1.000000" fill-rule="nonzero"/>
	<path id="Vector" d="M101.22 52.22C99.62 50.62 97.62 49.82 95.32 49.82C93.02 49.82 91.02 50.62 89.42 52.22C87.82 53.82 87.02 55.82 87.02 58.12C87.02 60.42 87.82 62.42 89.42 64.02C91.12 65.62 93.12 66.42 95.42 66.42C97.72 66.42 99.72 65.62 101.32 63.92C102.92 62.22 103.72 60.22 103.72 57.92C103.72 55.72 102.92 53.72 101.22 52.22ZM95.32 51.12C97.22 51.12 98.92 51.82 100.22 53.22C101.62 54.62 102.32 56.22 102.32 58.12C102.32 60.12 101.62 61.82 100.12 63.12C98.82 64.52 97.22 65.12 95.22 65.12C93.32 65.12 91.62 64.42 90.32 63.02C88.92 61.62 88.22 60.02 88.22 58.12C88.22 56.12 88.92 54.52 90.32 53.12C91.62 51.72 93.32 51.12 95.32 51.12Z" fill="#000000" fill-opacity="1.000000" fill-rule="nonzero"/>
	<path id="Vector" d="M116.72 54.02C116.52 52.82 115.92 51.82 114.82 50.92C113.82 50.12 112.62 49.62 111.32 49.62C110.32 49.62 109.42 49.82 108.62 50.32C108.02 50.72 107.42 51.12 107.02 51.72L107.02 50.72C107.02 49.72 105.62 49.72 105.62 50.72L105.62 65.32C105.62 65.82 106.02 66.02 106.32 66.02C106.82 66.02 107.02 65.62 107.02 65.32L107.02 57.02C107.02 56.12 107.02 55.32 107.12 54.92C107.32 53.72 107.72 52.82 108.42 52.12C109.22 51.42 110.22 51.02 111.22 51.02C112.02 51.02 112.82 51.22 113.42 51.62C114.32 52.12 114.92 52.92 115.12 53.92C115.32 54.52 115.32 55.62 115.32 57.02L115.32 65.32C115.32 65.72 115.62 66.02 116.02 66.02C116.22 66.02 116.42 65.92 116.52 65.82L116.82 65.82L116.82 56.32C116.92 55.42 116.82 54.62 116.72 54.02Z" fill="#000000" fill-opacity="1.000000" fill-rule="nonzero"/>
	<path id="Vector" d="M40.52 85.32C39.82 85.32 39.72 85.72 39.72 86.02C39.72 86.52 40.12 86.72 40.42 86.72C41.22 86.72 41.82 86.92 42.52 87.32C43.82 88.02 44.52 89.22 44.52 90.72C44.52 91.82 44.12 92.72 43.32 93.52C42.52 94.32 41.62 94.72 40.52 94.72C38.92 94.72 37.82 94.02 36.92 92.62C36.62 92.22 36.42 91.62 36.42 90.92C36.42 90.42 36.12 90.12 35.72 90.12C35.22 90.12 35.02 90.52 35.02 90.82C35.02 92.22 35.62 93.52 36.72 94.42C37.72 95.42 39.02 95.92 40.42 95.92C41.92 95.92 43.22 95.42 44.22 94.32C45.22 93.32 45.82 92.02 45.82 90.52C45.82 89.02 45.32 87.82 44.32 86.82C43.32 85.92 42.02 85.32 40.52 85.32Z" fill="#000000" fill-opacity="1.000000" fill-rule="nonzero"/>
	<path id="Vector" d="M40.22 81.12C41.52 81.12 42.42 81.62 43.02 82.72C43.12 82.92 43.32 83.32 43.42 83.72C43.42 84.22 43.72 84.52 44.12 84.52C44.52 84.52 44.82 84.22 44.82 83.82C44.82 82.62 44.22 81.62 43.22 81.02C42.32 80.22 41.32 79.82 40.12 79.82C38.92 79.82 37.82 80.22 36.92 81.12C36.12 82.12 35.62 83.12 35.62 84.32C35.62 85.52 36.02 86.62 36.92 87.52C37.72 88.42 38.82 88.92 40.02 88.92C40.52 88.92 40.82 88.62 40.82 88.22C40.82 87.82 40.52 87.52 40.12 87.52C39.22 87.52 38.52 87.22 37.92 86.62C37.32 86.02 37.02 85.22 37.02 84.32C37.02 83.42 37.32 82.62 37.92 82.02C38.72 81.42 39.42 81.12 40.22 81.12Z" fill="#000000" fill-opacity="1.000000" fill-rule="nonzero"/>
	<path id="Vector" d="M57.92 86.52C57.92 85.42 57.82 84.62 57.72 84.12C57.42 82.82 56.82 81.82 55.92 81.12C54.92 80.22 53.92 79.82 52.62 79.82C51.72 79.82 50.82 80.02 50.02 80.52C49.32 80.82 48.82 81.32 48.42 81.82L48.42 75.82C48.42 74.82 47.02 74.82 47.02 75.82L47.02 94.92C47.02 95.42 47.42 95.62 47.72 95.62C48.22 95.62 48.42 95.22 48.42 94.92L48.42 86.92C48.42 86.32 48.42 85.82 48.52 85.42C48.52 85.12 48.52 84.92 48.52 84.82C48.72 83.72 49.12 82.82 49.82 82.12C50.62 81.42 51.42 81.12 52.62 81.12C53.42 81.12 54.22 81.32 54.82 81.72C55.72 82.32 56.22 83.02 56.42 83.92C56.62 84.52 56.62 85.52 56.62 86.92L56.62 94.92C56.62 95.32 56.92 95.62 57.32 95.62C57.82 95.62 58.02 95.22 58.02 94.92L57.92 94.42L57.92 86.52Z" fill="#000000" fill-opacity="1.000000" fill-rule="nonzero"/>
	<path id="Vector" d="M73.32 82.12C71.72 80.52 69.82 79.72 67.62 79.72C65.42 79.72 63.42 80.52 61.92 82.12C60.32 83.72 59.52 85.62 59.52 87.82C59.52 90.02 60.32 92.02 61.92 93.52C63.52 95.12 65.42 95.92 67.72 95.92C70.02 95.92 71.92 95.12 73.42 93.52C75.02 91.92 75.82 90.02 75.82 87.72C75.82 85.42 75.02 83.62 73.32 82.12ZM62.82 92.62C61.52 91.32 60.82 89.72 60.82 87.82C60.82 85.92 61.52 84.32 62.82 82.92C64.12 81.62 65.72 80.92 67.72 80.92C69.52 80.92 71.22 81.62 72.52 82.92C73.82 84.22 74.52 85.82 74.52 87.72C74.52 89.62 73.82 91.32 72.42 92.62C71.12 93.92 69.52 94.62 67.62 94.62C65.82 94.62 64.12 93.92 62.82 92.62Z" fill="#000000" fill-opacity="1.000000" fill-rule="nonzero"/>
	<path id="Vector" d="M85.22 79.72C82.92 79.72 81.02 80.52 79.52 82.12C78.02 83.72 77.12 85.62 77.12 87.82C77.12 90.02 77.92 91.92 79.42 93.52L79.42 100.02C79.42 100.42 79.72 100.72 80.12 100.72C80.62 100.72 80.82 100.32 80.82 100.02L80.82 94.72C82.12 95.62 83.62 96.02 85.22 96.02C87.52 96.02 89.52 95.22 91.02 93.72C92.62 92.12 93.52 90.32 93.52 88.02C93.52 85.72 92.62 83.82 91.02 82.22C89.42 80.52 87.52 79.72 85.22 79.72ZM80.12 87.12C79.82 87.12 79.42 87.42 79.42 87.92L79.42 91.32C78.82 90.32 78.52 89.12 78.52 87.82C78.52 86.02 79.22 84.32 80.52 83.02C81.92 81.62 83.52 81.02 85.42 81.02C87.32 81.02 88.92 81.72 90.32 83.02C91.62 84.32 92.32 85.92 92.32 87.92C92.32 89.82 91.62 91.42 90.22 92.72C88.92 94.02 87.32 94.72 85.42 94.72C83.72 94.72 82.22 94.12 80.92 92.92L80.92 87.92C80.82 87.22 80.42 87.12 80.12 87.12Z" fill="#000000" fill-opacity="1.000000" fill-rule="nonzero"/>
	<path id="Vector" d="M56.72 102.32L56.72 109.52L63.22 105.82L56.72 102.32Z" fill="#000000" fill-opacity="1.000000" fill-rule="nonzero"/>
	<path id="Vector" d="M69.42 102.32L69.42 109.52L62.92 105.82L69.42 102.32Z" fill="#000000" fill-opacity="1.000000" fill-rule="nonzero"/>
</svg>
