<svg width="24.000000" height="24.000244" viewBox="0 0 24 24.0002" fill="none" xmlns="http://www.w3.org/2000/svg" xmlns:xlink="http://www.w3.org/1999/xlink">
	<desc>
			Created with Pixso.
	</desc>
	<defs/>
	<rect id="Rectangle 401" width="24.000000" height="24.000000" fill="#D9D9D9" fill-opacity="0"/>
	<path id="Vector" d="M12.11 12.47C14.45 12.47 16.35 10.57 16.35 8.23C16.35 5.89 14.45 4 12.11 4C9.78 4 7.88 5.89 7.88 8.23C7.88 10.57 9.78 12.47 12.11 12.47ZM12.11 6.11C13.28 6.11 14.23 7.06 14.23 8.23C14.23 9.4 13.28 10.35 12.11 10.35C10.94 10.35 10 9.4 10 8.23C10 7.06 10.94 6.11 12.11 6.11Z" fill="#000000" fill-opacity="1.000000" fill-rule="nonzero"/>
	<path id="Vector" d="M17.91 11.82C17.48 11.43 16.79 11.43 16.36 11.82C14.02 13.98 10.21 13.98 7.86 11.82C7.43 11.43 6.74 11.43 6.32 11.82C5.89 12.21 5.89 12.85 6.32 13.25C7.68 14.5 9.4 15.21 11.18 15.4L8.06 18.27C7.63 18.67 7.63 19.31 8.06 19.7C8.49 20.09 9.18 20.09 9.61 19.7L12.11 17.39L14.62 19.7C14.83 19.9 15.11 19.99 15.39 19.99C15.67 19.99 15.95 19.9 16.16 19.7C16.59 19.31 16.59 18.67 16.16 18.27L13.05 15.4C14.83 15.21 16.55 14.5 17.91 13.25C18.34 12.85 18.34 12.21 17.91 11.82Z" fill="#000000" fill-opacity="1.000000" fill-rule="nonzero"/>
</svg>
