<svg width="12.000000" height="18.982666" viewBox="0 0 12 18.9827" fill="none" xmlns="http://www.w3.org/2000/svg" xmlns:xlink="http://www.w3.org/1999/xlink">
	<desc>
			Created with Pixso.
	</desc>
	<defs/>
	<path id="Vector" d="M2.31 18.48C1.36 18.48 0.5 17.71 0.5 16.66L0.5 2.31C0.5 1.36 1.26 0.5 2.31 0.5L9.68 0.5C10.63 0.5 11.5 1.26 11.5 2.31L11.5 16.66C11.5 17.62 10.63 18.48 9.68 18.48L2.31 18.48Z" stroke="#000000" stroke-opacity="1.000000" stroke-width="1.000000" stroke-linejoin="round"/>
	<path id="Vector" d="M2.22 14.84L9.77 14.84" stroke="#000000" stroke-opacity="1.000000" stroke-width="1.000000" stroke-linejoin="round" stroke-linecap="round"/>
	<path id="Vector" d="M6.52 16.66C6.52 17.03 6.22 17.33 5.85 17.33C5.48 17.33 5.18 17.03 5.18 16.66C5.18 16.29 5.48 15.99 5.85 15.99C6.22 15.99 6.52 16.29 6.52 16.66Z" fill="#000000" fill-opacity="1.000000" fill-rule="evenodd"/>
</svg>
