<svg width="16.000000" height="12.000000" viewBox="0 0 16 12" fill="none" xmlns="http://www.w3.org/2000/svg" xmlns:xlink="http://www.w3.org/1999/xlink">
	<desc>
			Created with Pixso.
	</desc>
	<defs/>
	<path d="M14.97 0.04L0.33 5.12C-0.14 5.28 -0.11 5.89 0.38 6.02L4.1 6.99L5.48 10.91C5.63 11.32 6.21 11.45 6.55 11.14L8.47 9.39L12.24 11.86C12.71 12.16 13.36 11.94 13.48 11.44L15.98 0.8C16.1 0.28 15.53 -0.15 14.97 0.04ZM13.13 2.4L6.34 7.75C6.27 7.81 6.23 7.88 6.22 7.96L5.95 10.03C5.95 10.1 5.84 10.11 5.82 10.04L4.74 6.95C4.69 6.81 4.75 6.66 4.9 6.58L12.92 2.15C13.11 2.05 13.3 2.27 13.13 2.4Z" fill="#000000" fill-opacity="1.000000" fill-rule="nonzero"/>
</svg>
