<svg width="28.461426" height="37.000000" viewBox="0 0 28.4614 37" fill="none" xmlns="http://www.w3.org/2000/svg" xmlns:xlink="http://www.w3.org/1999/xlink">
	<desc>
			Created with Pixso.
	</desc>
	<defs/>
	<path id="Vector" d="M21.56 7.07C21.48 6.94 21.37 6.83 21.24 6.76C21.11 6.68 20.96 6.64 20.8 6.64C20.65 6.64 20.5 6.68 20.37 6.76C20.23 6.83 20.12 6.94 20.04 7.07C18.73 9.29 17.53 11.57 16.47 13.92C14.72 9.24 12.54 4.72 9.98 0.42L9.98 0.42C9.94 0.36 9.9 0.31 9.85 0.26C9.84 0.25 9.83 0.24 9.82 0.23C9.77 0.18 9.72 0.14 9.66 0.11L9.66 0.11C9.6 0.08 9.54 0.05 9.47 0.03C9.46 0.03 9.44 0.02 9.42 0.02C9.29 -0.01 9.15 -0.01 9.02 0.02C9 0.02 8.99 0.03 8.97 0.03C8.91 0.05 8.85 0.08 8.79 0.11L8.79 0.11C8.73 0.14 8.67 0.18 8.63 0.23C8.61 0.24 8.6 0.25 8.59 0.26C8.54 0.31 8.5 0.36 8.46 0.42L8.46 0.42C8.12 0.98 0 14.43 0 23.26C0 33.39 4.76 37 9.22 37C10.4 37 11.56 36.74 12.62 36.24C13.68 35.74 14.61 35.01 15.35 34.11C15.94 35 16.75 35.73 17.7 36.23C18.66 36.73 19.72 37 20.8 37C24.5 37 28.46 34.03 28.46 25.69C28.46 18.47 21.84 7.53 21.56 7.07ZM9.22 35.26C8.8 35.13 7.3 32.76 7.3 23.26C7.3 17.88 8.4 10.46 9.22 5.71C10.04 10.46 11.15 17.88 11.15 23.26C11.15 32.76 9.64 35.13 9.22 35.26ZM1.76 23.26C1.76 18.03 4.96 10.79 7.36 6.07C6.55 10.88 5.53 17.94 5.53 23.26C5.53 27.44 5.81 32.14 6.91 34.82C3.68 33.51 1.76 29.33 1.76 23.26ZM11.54 34.82C12.63 32.14 12.92 27.44 12.92 23.26C12.92 17.94 11.9 10.88 11.08 6.07C12.85 9.47 14.33 13.01 15.51 16.64L15.51 16.65C15.87 17.81 16.16 19 16.38 20.2C16.38 20.22 16.39 20.24 16.39 20.26C16.43 20.51 16.47 20.75 16.51 20.98C16.51 21.01 16.52 21.05 16.52 21.08C16.55 21.3 16.58 21.52 16.6 21.73C16.6 21.77 16.61 21.81 16.61 21.85C16.63 22.05 16.64 22.25 16.65 22.45C16.66 22.49 16.66 22.54 16.66 22.58C16.68 22.81 16.68 23.04 16.68 23.26C16.68 23.49 16.68 23.72 16.67 23.94C16.59 27.29 15.9 30.09 14.65 32.06C14.64 32.08 14.63 32.1 14.62 32.12C13.91 33.32 12.83 34.26 11.54 34.82L11.54 34.82ZM20.8 35.26C18.98 35.26 17.47 34.33 16.43 32.57C17.51 30.68 18.24 28.12 18.41 24.76C18.41 24.68 18.42 24.61 18.42 24.53C18.44 24.12 18.45 23.7 18.45 23.26C18.45 23.01 18.44 22.75 18.43 22.48C18.42 22.36 18.41 22.23 18.4 22.11C18.39 21.97 18.38 21.82 18.37 21.68C18.35 21.51 18.33 21.34 18.31 21.17C18.3 21.07 18.29 20.97 18.27 20.87C18.24 20.66 18.21 20.44 18.18 20.23C18.17 20.17 18.16 20.11 18.15 20.05C18.1 19.79 18.05 19.53 18 19.28L17.99 19.22C17.8 18.3 17.56 17.37 17.29 16.44C18.32 13.99 19.5 11.59 20.8 9.27C22.55 12.38 26.69 20.34 26.69 25.69C26.69 31.59 24.43 35.26 20.8 35.26Z" fill="#4E9DD3" fill-opacity="1.000000" fill-rule="nonzero"/>
</svg>
