<svg width="24.000000" height="24.000000" viewBox="0 0 24 24" fill="none" xmlns="http://www.w3.org/2000/svg" xmlns:xlink="http://www.w3.org/1999/xlink">
	<desc>
			Created with Pixso.
	</desc>
	<defs/>
	<rect id="Rectangle 401" width="24.000000" height="24.000000" fill="#D9D9D9" fill-opacity="0"/>
	<path id="Vector" d="M11.34 17.45L12.34 17.45C12.34 17.45 12.65 17.42 12.8 17.25C12.95 17.09 12.94 16.81 12.94 16.81C12.94 16.81 12.92 15.45 13.55 15.26C14.17 15.06 14.96 16.56 15.8 17.14C16.44 17.58 16.92 17.48 16.92 17.48L19.17 17.45C19.17 17.45 20.35 17.38 19.79 16.45C19.74 16.38 19.47 15.77 18.12 14.52C16.71 13.21 16.9 13.42 18.6 11.15C19.63 9.77 20.04 8.93 19.91 8.57C19.79 8.23 19.03 8.32 19.03 8.32L16.5 8.34C16.5 8.34 16.31 8.31 16.17 8.39C16.03 8.47 15.95 8.66 15.95 8.66C15.95 8.66 15.55 9.73 15.01 10.64C13.88 12.55 13.43 12.66 13.25 12.54C12.82 12.26 12.93 11.42 12.93 10.83C12.93 8.97 13.21 8.2 12.38 8C12.1 7.93 11.9 7.89 11.2 7.88C10.29 7.87 9.53 7.88 9.1 8.1C8.81 8.24 8.58 8.55 8.72 8.57C8.89 8.59 9.27 8.67 9.47 8.95C9.73 9.3 9.72 10.09 9.72 10.09C9.72 10.09 9.87 12.28 9.37 12.55C9.03 12.73 8.56 12.35 7.55 10.62C7.04 9.73 6.65 8.74 6.65 8.74C6.65 8.74 6.58 8.56 6.44 8.46C6.28 8.34 6.05 8.3 6.05 8.3L3.65 8.32C3.65 8.32 3.28 8.33 3.15 8.49C3.03 8.63 3.14 8.92 3.14 8.92C3.14 8.92 5.03 13.32 7.16 15.55C9.12 17.58 11.34 17.45 11.34 17.45Z" fill="#000000" fill-opacity="1.000000" fill-rule="evenodd"/>
</svg>
